<svg width="136" height="191" viewBox="0 0 136 191" fill="none" xmlns="http://www.w3.org/2000/svg">
<g clip-path="url(#clip0_201_2537)">
<path fill-rule="evenodd" clip-rule="evenodd" d="M52.5259 190.827C46.5942 190.913 40.5765 191.173 34.5588 190.827C28.5411 190.481 22.3514 189.616 16.5057 187.107C12.2933 185.291 8.25283 182.436 5.58785 178.457C3.26674 174.91 1.97723 170.845 1.63336 166.865C1.28949 162.886 1.20353 159.08 1.28949 155.187C1.37546 147.402 2.0632 139.79 2.49303 132.091C2.92287 125.344 3.18077 118.51 2.92287 111.763C2.75094 107.437 2.579 103.112 2.14917 98.8736C2.0632 97.8356 1.89126 96.711 1.8053 95.673C1.71933 94.6349 1.5474 93.5104 1.46143 92.4723C1.20353 90.3098 0.859658 88.2337 0.429822 86.1576C-0.171947 83.5625 -0.0859803 83.822 1.11756 85.8981C2.23513 87.9742 4.21238 91.9533 5.15802 96.9705C5.84575 101.469 6.27559 105.967 6.44752 110.379C6.61946 114.877 6.61946 119.375 6.44752 123.873C6.01769 132.697 5.15802 141.52 4.72818 150.343C4.55625 155.62 4.55625 161.07 5.15802 166.346C5.50188 168.942 6.18962 171.45 7.22123 173.699C8.25283 175.948 9.80024 178.024 11.6055 179.754C15.732 183.474 21.3198 185.377 27.0796 186.329C32.8394 187.28 38.7712 187.367 44.7029 187.367L55.7067 187.194C59.3173 187.107 63.0139 186.848 66.7105 186.502C72.2124 185.983 77.8002 185.377 83.2162 184.512C88.7181 183.647 94.134 182.523 99.292 180.879C101.269 180.274 103.247 179.495 105.138 178.63C106.943 177.765 108.748 176.554 109.608 175.256C110.554 173.699 111.241 171.71 111.757 169.807C112.273 167.817 112.617 165.827 112.875 163.838C113.047 162.021 113.133 160.291 113.133 158.475C113.219 151.727 112.789 149.651 113.992 147.921C114.25 147.575 114.336 147.056 114.594 146.797C115.11 145.932 117.173 148.613 117.603 153.976C117.775 155.966 117.861 157.956 117.861 160.032C117.775 162.021 117.603 164.097 117.259 166.173C116.915 168.25 116.399 170.239 115.712 172.315L115.11 173.872L114.422 175.343C113.906 176.381 113.477 177.246 112.531 178.543C110.64 180.533 108.662 181.571 106.685 182.523C104.708 183.474 102.731 184.166 100.753 184.772C96.799 185.983 92.7585 186.848 88.7181 187.54C82.7004 188.578 76.6827 189.356 70.665 189.875C64.6473 190.394 58.6296 190.913 52.5259 191V190.827Z" fill="#1B1B1B"/>
<path fill-rule="evenodd" clip-rule="evenodd" d="M115.368 160.551C115.368 160.551 133.077 161.935 135.742 170.758C139.611 183.301 95.4235 187.28 83.3021 187.799C69.3755 188.405 72.2983 188.491 72.2983 188.491C72.2983 188.491 102.903 185.204 107.975 180.101C113.047 174.824 115.97 163.751 115.368 160.551Z" fill="#1B1B1B"/>
<path fill-rule="evenodd" clip-rule="evenodd" d="M9.62828 180.101C10.8318 181.571 12.2073 182.869 13.8407 183.907C14.4424 184.339 15.0442 184.599 15.646 184.945C17.7952 186.156 20.1163 187.021 22.6953 187.28C23.8129 187.453 24.9304 187.453 26.134 187.453C27.5954 187.54 29.1428 187.453 30.6043 187.972C31.0341 188.145 30.9481 188.578 30.5183 188.924C30.0885 189.27 29.3148 189.702 28.5411 189.702C25.6182 189.789 22.5234 189.875 19.3426 188.837C17.5373 188.232 15.56 187.713 13.8407 186.761C11.9494 185.723 10.2301 184.426 8.68264 182.955C8.25281 182.523 7.737 182.004 7.30717 181.485C6.87733 180.966 6.4475 180.447 6.10363 179.928C4.90009 178.284 4.04042 176.467 3.43865 174.564C2.92284 173.094 2.49301 171.623 2.32107 170.066C2.32107 169.72 2.23511 169.374 2.23511 169.028C2.32107 167.731 2.57898 167.385 3.18075 167.125C3.35268 167.125 3.43865 167.039 3.61058 167.039C4.04042 166.952 4.38429 167.558 4.55622 168.336C4.64219 168.942 4.81412 169.547 4.90009 170.153L5.41589 171.883C5.75976 173.007 6.1896 174.218 6.79137 175.256C7.4791 177.073 8.51071 178.716 9.62828 180.101Z" fill="#1B1B1B"/>
<path fill-rule="evenodd" clip-rule="evenodd" d="M111.156 71.971C109.092 71.0195 106.685 70.76 104.192 70.6735C101.699 70.76 99.1201 71.0195 96.5411 71.3655C91.3831 72.0575 86.1391 73.0956 80.981 74.0471L69.6334 76.3827C62.9279 77.6803 56.2225 78.8913 49.5171 80.0159C42.8116 81.0539 36.0202 82.0055 29.1429 82.3515C26.134 82.5245 23.0392 82.611 19.9444 82.438C16.8496 82.265 13.7547 82.0055 10.7459 80.9674L9.37041 80.4484C8.94058 80.2754 8.42477 80.0159 7.99494 79.7564C7.47914 79.5834 7.13527 79.1508 6.70543 78.8913C6.44753 78.7183 6.2756 78.5453 6.01769 78.3723C5.84576 78.1128 5.58786 77.9398 5.41592 77.6803C4.98609 77.2478 4.72819 76.6422 4.55625 76.0367C4.38432 75.4312 4.38432 74.7391 4.47029 74.1336C4.64222 72.9226 5.15802 71.971 5.75979 71.0195C6.96333 69.2894 8.42477 67.9054 10.0581 66.6943C11.6915 65.4833 13.4109 64.4452 15.2162 63.7532C16.4197 63.3207 17.0215 63.3207 17.0215 63.5802C17.0215 63.7532 16.5057 64.1857 15.732 64.7912C14.1846 66.0888 11.2617 68.4244 8.76864 71.5385C7.65107 72.9226 7.0493 74.5661 7.39317 75.2582C7.5651 75.6907 7.823 76.0367 8.59671 76.4692L9.02654 76.8152C9.19848 76.9017 9.37041 76.9882 9.54235 77.0747C9.88622 77.2478 10.2301 77.5073 10.6599 77.5938C13.9267 78.8913 17.7092 79.2373 21.4918 79.3238C29.1429 79.4968 36.9659 78.5453 44.7889 77.5073C54.1593 76.2962 63.7876 74.1336 73.244 72.317C78.488 71.279 83.732 70.241 88.976 69.2894C91.641 68.8569 94.22 68.4244 96.885 67.9919C99.5499 67.6459 102.215 67.2998 105.052 67.3863C108.405 67.4728 112.101 68.2514 114.938 70.5005C116.399 71.625 117.431 73.0956 118.291 74.6526C119.064 76.2962 119.58 77.9398 119.838 79.6699C120.698 84.8601 120.182 89.9638 119.494 94.8945C118.807 99.9117 117.861 104.756 117.259 109.687C117.001 111.59 116.829 113.493 116.743 115.309C116.743 116.261 116.743 117.126 116.743 118.077C116.743 118.51 116.829 118.943 116.915 119.375V119.721L117.001 120.24C117.087 120.586 117.087 120.932 117.087 121.192C117.345 121.884 116.743 122.489 116.314 122.922C115.712 123.268 115.11 123.527 114.336 123.7C113.305 123.873 112.273 123.96 111.327 123.96C109.35 123.96 107.459 123.873 105.568 123.787C103.934 123.7 102.301 123.614 100.582 123.614C94.3919 123.354 92.6726 123.441 91.2971 123.354C90.9532 123.354 90.6094 123.441 90.3515 123.354C90.1795 123.354 90.1795 123.268 90.2655 123.008C90.4374 122.749 90.7813 122.489 91.2971 122.143C92.4147 121.538 94.3059 121.019 96.6271 120.846C100.152 120.5 103.59 120.759 107.029 120.759C108.748 120.759 110.468 120.846 112.101 120.759C112.531 120.759 112.875 120.673 113.219 120.673C113.391 120.673 113.649 120.586 113.735 120.586C113.82 120.586 113.82 120.5 113.735 120.327V120.24C113.735 120.24 113.735 120.24 113.735 120.067L113.649 119.289C113.563 118.769 113.563 118.337 113.563 117.818C113.477 116.866 113.563 115.915 113.563 114.963C113.649 113.06 113.82 111.244 114.078 109.427C114.508 105.794 115.196 102.247 115.712 98.7007C116.485 93.5104 117.259 88.2337 117.001 83.2165C116.829 80.7079 116.4 78.2858 115.454 76.2097C114.766 74.4796 113.219 72.9226 111.156 71.971Z" fill="#1B1B1B"/>
<path fill-rule="evenodd" clip-rule="evenodd" d="M106.685 141.26C108.491 141.174 110.382 141.001 112.187 140.828L114.938 140.482L117.345 140.136C117.431 140.136 117.517 140.136 117.603 140.136C117.689 140.049 117.689 139.963 117.689 139.876V139.444L117.775 138.406C117.861 137.8 117.947 137.108 118.119 136.416L118.549 134.6L119.408 131.053C120.01 128.717 120.526 126.382 120.87 123.96C121.214 121.884 121.472 119.721 121.558 117.645C121.558 116.347 121.472 114.963 121.214 113.839C121.042 113.233 120.87 112.714 120.612 112.368C120.354 112.022 120.01 111.936 119.494 111.936C118.807 112.022 118.635 111.59 119.236 110.898C119.58 110.638 120.268 110.119 121.3 110.465C122.331 110.725 123.105 111.763 123.449 112.628C124.051 114.271 124.137 115.828 124.223 117.299C124.308 118.769 124.223 120.24 124.051 121.711C123.793 124.565 123.191 127.42 122.503 130.188C122.073 131.831 121.729 133.562 121.386 135.292C121.214 136.157 121.042 137.022 120.956 137.714C120.87 138.146 120.87 138.492 120.87 138.925L120.784 140.395C120.698 141.174 120.526 141.866 120.182 142.558C119.494 142.817 118.721 142.99 118.033 143.163C117.001 143.336 116.142 143.509 115.11 143.682C113.219 143.942 111.327 144.201 109.436 144.374C107.115 144.634 104.708 144.807 102.387 144.894C100.582 144.98 98.7762 144.98 96.9709 144.807C96.0253 144.721 95.1656 144.634 94.22 144.461C93.2743 144.288 92.2427 144.028 91.2971 143.25C90.0936 142.125 89.3199 140.741 88.7181 139.444C88.1163 138.146 87.6865 136.762 87.3426 135.378C87.1707 134.773 87.0847 134.167 86.9987 133.475C86.8268 132.264 86.9128 131.485 87.0847 130.88C87.3426 130.274 87.6865 130.015 88.2023 129.842C88.4602 129.755 88.6321 129.669 88.89 129.582C89.2339 129.496 89.5778 129.755 89.8357 130.101C90.0936 130.447 90.3515 131.053 90.5234 131.745C90.9532 133.908 91.555 136.243 92.4147 138.146C92.8445 139.098 93.3603 140.049 93.7902 140.395C93.6182 140.568 94.134 139.963 93.4463 140.828L93.5323 140.741L93.7902 140.482C93.7902 140.482 93.7902 140.482 93.8761 140.482C93.9621 140.568 94.22 140.568 94.3919 140.655C94.5639 140.741 94.9077 140.741 95.0797 140.828C95.3376 140.914 95.5955 140.914 95.8534 140.914C97.4867 141.087 99.292 141.174 101.183 141.174C102.989 141.174 104.88 141.087 106.685 140.914V141.26Z" fill="#1B1B1B"/>
<path fill-rule="evenodd" clip-rule="evenodd" d="M100.925 144.288C102.129 144.374 103.418 144.461 104.622 144.374C105.052 144.374 105.568 144.288 105.997 144.288C107.631 144.201 109.264 144.115 110.898 143.942C111.585 143.855 112.359 143.682 113.047 143.596C113.992 143.423 114.852 143.163 115.884 143.25C116.485 143.336 115.97 145.153 114.938 145.413C113.133 145.845 111.241 146.191 109.264 146.278C108.061 146.278 106.943 146.624 105.74 146.71C104.45 146.883 103.075 146.883 101.785 146.883C100.925 146.883 100.152 146.883 99.292 146.797C98.6903 146.71 98.0885 146.71 97.4008 146.537C96.799 146.451 96.1972 146.278 95.5095 146.105C94.9937 146.018 94.5639 145.845 94.0481 145.672C93.7902 145.586 93.5322 145.499 93.3603 145.413C93.1024 145.24 92.9305 145.153 92.6726 144.98C92.5006 144.807 92.2427 144.721 92.0708 144.548C91.469 143.855 91.469 143.509 91.8129 143.077C91.8989 142.99 91.9848 142.904 92.0708 142.817C92.4147 142.558 92.8445 142.558 93.2743 142.731C94.5639 143.336 95.7674 143.509 97.2288 143.942C97.7446 144.028 98.3464 144.201 98.9482 144.201C99.7219 144.115 100.324 144.201 100.925 144.288Z" fill="#1B1B1B"/>
<path fill-rule="evenodd" clip-rule="evenodd" d="M18.8268 89.7908C18.311 89.7908 17.7092 89.7043 17.1934 89.7043C17.0215 89.7043 16.7636 89.7043 16.5916 89.7043C15.9039 89.6178 15.1302 89.5313 14.4424 89.3583C14.0986 89.2718 13.8407 89.2718 13.4968 89.1853C13.067 89.0988 12.7231 89.0123 12.2933 88.8393C12.0354 88.7528 12.5512 88.1473 12.981 88.2338C13.7547 88.3203 14.5284 88.4068 15.3021 88.5798C15.7319 88.6663 16.2477 88.5798 16.7636 88.5798C17.2794 88.5798 17.8811 88.5798 18.3969 88.5798C18.7408 88.5798 19.0847 88.5798 19.4285 88.5798C19.9443 88.5798 20.4601 88.5798 20.9759 88.4933C21.4058 88.4068 21.7496 88.3203 22.0935 88.3203C22.1795 88.3203 22.2654 88.3203 22.3514 88.3203C22.6953 88.3203 22.7813 88.4068 22.8672 88.6663C22.8672 88.7528 22.9532 88.8393 22.9532 88.8393C23.0392 89.0988 22.8672 89.2718 22.6953 89.3583C22.0075 89.6178 21.3198 89.8773 20.5461 89.8773C19.9443 89.8773 19.4285 89.8773 18.8268 89.7908Z" fill="#1B1B1B"/>
<path fill-rule="evenodd" clip-rule="evenodd" d="M34.0429 178.457C33.5271 178.457 32.9254 178.371 32.4096 178.371C32.2376 178.371 31.9797 178.371 31.8078 178.371C31.1201 178.284 30.3464 178.198 29.6586 178.025C29.3148 177.938 29.0569 177.938 28.713 177.852C28.2832 177.765 27.9393 177.679 27.5094 177.506C27.2515 177.419 27.7673 176.814 28.1972 176.9C28.9709 176.987 29.7446 177.073 30.5183 177.246C30.9481 177.333 31.4639 177.246 31.9797 177.246C32.4955 177.246 33.0973 177.246 33.6131 177.246C33.957 177.246 34.3009 177.246 34.6447 177.246C35.1605 177.246 35.6763 177.246 36.1921 177.16C36.622 177.073 36.9658 176.987 37.3097 176.987C37.3957 176.987 37.4816 176.987 37.5676 176.987C37.9115 176.987 37.9974 177.073 38.0834 177.333C38.0834 177.419 38.1694 177.506 38.1694 177.506C38.2553 177.765 38.0834 177.938 37.9115 178.025C37.2237 178.284 36.536 178.544 35.7623 178.544C35.1605 178.544 34.5588 178.544 34.0429 178.457Z" fill="#1B1B1B"/>
<path fill-rule="evenodd" clip-rule="evenodd" d="M76.1669 84.9465C75.6511 85.033 75.0493 85.033 74.5335 85.1195C74.3616 85.1195 74.1037 85.206 73.9318 85.206C73.244 85.206 72.4703 85.206 71.7826 85.206C71.4387 85.206 71.1808 85.206 70.8369 85.206C70.4071 85.206 70.0632 85.206 69.6334 85.033C69.3755 84.9465 69.8053 84.341 70.2352 84.341C71.0089 84.341 71.7826 84.2545 72.5563 84.2545C73.0721 84.2545 73.5019 84.0815 74.0177 83.995C74.5335 83.9085 75.0493 83.822 75.6511 83.7354C75.995 83.6489 76.3388 83.6489 76.5967 83.5624C77.1125 83.4759 77.6283 83.3894 78.0582 83.2164C78.4021 83.1299 78.8319 82.9569 79.1758 82.8704C79.2617 82.8704 79.3477 82.7839 79.4337 82.7839C79.7775 82.6974 79.8635 82.7839 80.0354 83.0434C80.0354 83.1299 80.1214 83.1299 80.1214 83.2164C80.2074 83.4759 80.1214 83.6489 79.9495 83.822C79.3477 84.168 78.6599 84.514 77.9722 84.687C77.2845 84.7735 76.7687 84.86 76.1669 84.9465Z" fill="#1B1B1B"/>
<path fill-rule="evenodd" clip-rule="evenodd" d="M67.1403 178.63C66.6245 178.717 66.0227 178.717 65.5069 178.803C65.335 178.803 65.0771 178.89 64.9051 178.89C64.2174 178.89 63.4437 178.89 62.756 178.89C62.4121 178.89 62.1542 178.89 61.8103 178.89C61.3805 178.89 61.0366 178.89 60.6068 178.717C60.3489 178.63 60.7787 178.025 61.2086 178.025C61.9823 178.025 62.756 177.938 63.5297 177.938C64.0455 177.938 64.4753 177.765 64.9911 177.679C65.5069 177.592 66.0227 177.506 66.6245 177.419C66.9684 177.333 67.3122 177.333 67.5701 177.246C68.0859 177.16 68.6017 177.073 69.0316 176.9C69.3754 176.814 69.8053 176.641 70.1491 176.554C70.2351 176.554 70.3211 176.467 70.407 176.467C70.7509 176.381 70.8369 176.467 71.0088 176.727C71.0088 176.814 71.0948 176.814 71.0948 176.9C71.1807 177.16 71.0948 177.333 70.9228 177.506C70.3211 177.852 69.6333 178.198 68.9456 178.371C68.1719 178.544 67.6561 178.63 67.1403 178.63Z" fill="#1B1B1B"/>
<path fill-rule="evenodd" clip-rule="evenodd" d="M93.4463 81.8325C92.8445 81.8325 92.3287 81.8325 91.727 81.8325C91.555 81.8325 91.2971 81.8325 91.1252 81.8325C90.3515 81.8325 89.6637 81.746 88.89 81.8325C88.5462 81.8325 88.2023 81.919 87.9444 81.919C87.5146 82.0055 87.0847 82.092 86.6549 82.0055C86.397 82.0055 86.6549 81.3135 87.0847 81.1405C87.9444 80.9675 88.7181 80.7945 89.6637 80.7945C90.1796 80.7945 90.6954 80.6215 91.2112 80.6215C91.8129 80.535 92.3287 80.535 92.9305 80.535C93.2744 80.535 93.6182 80.535 93.9621 80.4485C94.4779 80.4485 95.0797 80.362 95.5955 80.362C96.0253 80.362 96.4551 80.2755 96.799 80.189C96.885 80.189 96.971 80.189 97.0569 80.189C97.4008 80.189 97.4868 80.2755 97.5727 80.6215C97.5727 80.708 97.5727 80.7945 97.6587 80.881C97.6587 81.1405 97.5727 81.3135 97.3148 81.4865C96.6271 81.746 95.8534 82.0055 95.0797 82.0055C94.5639 81.919 94.0481 81.919 93.4463 81.8325Z" fill="#1B1B1B"/>
<path fill-rule="evenodd" clip-rule="evenodd" d="M61.9824 78.1127C56.1366 79.0643 50.2049 80.0158 44.2731 80.7078C42.124 80.9673 39.9748 81.3133 37.7396 81.4863C33.8711 81.7459 30.0026 81.9189 26.1341 81.7459C22.2655 81.5729 18.3111 81.2268 14.5285 79.6698C13.6688 79.4103 12.8951 78.8912 12.1214 78.4587C11.3477 77.8532 10.574 77.4207 9.88627 76.5556C9.19854 75.6906 8.85467 74.5661 9.0266 73.4415C9.11257 72.4035 9.45644 71.4519 9.97224 70.5869C11.1758 68.5108 12.8951 66.9537 14.6145 65.5697C16.4198 64.2721 18.397 63.0611 20.5462 62.4555C22.0076 62.1095 21.8357 62.6286 20.976 63.4936C20.1164 64.3586 18.6549 65.8292 16.8496 67.2998C15.2162 68.5973 13.8408 70.1544 12.8092 71.6249C12.2934 72.4035 12.0355 73.182 11.9495 73.701C11.9495 74.22 12.0355 74.5661 12.6372 75.0851C13.9267 76.2961 15.818 76.9882 17.7093 77.5937C19.6865 78.1127 21.7497 78.4587 23.8989 78.7182C29.0569 79.2373 34.5588 78.7182 39.8888 78.1992C45.7346 77.5937 51.6663 76.7286 57.5121 75.7771C61.1227 75.1716 64.7333 74.5661 68.3439 73.874C73.7599 72.836 79.2618 71.7979 84.6777 70.6734C88.8901 69.8084 92.9305 68.7703 97.1429 67.9918C98.0886 67.8188 98.9482 67.6458 99.8939 67.4728C103.419 66.9537 104.536 67.2998 105.396 67.8188C105.568 67.9053 105.826 68.0783 105.912 68.1648C106.255 68.5973 104.88 69.1163 102.473 69.8084C98.8623 70.7599 95.0797 71.5384 91.2112 72.49C87.3427 73.2685 83.4741 74.1335 79.5197 74.9121C73.7599 75.9501 67.9141 77.1612 61.9824 78.1127Z" fill="#1B1B1B"/>
<path fill-rule="evenodd" clip-rule="evenodd" d="M10.9178 67.4728C29.4007 58.1304 50.2048 54.5838 70.579 51.2101C75.4791 50.3451 80.6372 49.5665 85.4513 50.7776C90.3514 51.9886 94.9077 55.7083 95.5095 60.7255L95.3375 67.3863L45.0468 78.6318L18.311 79.5833L10.0581 79.6698L7.47913 73.7876L10.9178 67.4728Z" fill="#1B1B1B"/>
<path d="M10.9178 67.4729C10.7459 67.3864 10.2301 67.8189 9.45636 68.7704C9.11249 69.2895 8.59668 69.895 8.16685 70.587C7.90895 70.933 7.65105 71.3655 7.39315 71.7981C7.30718 71.8846 7.22121 72.0576 7.13524 72.1441C7.04928 72.3171 6.87734 72.4901 6.79137 72.6631C6.61944 73.0091 6.36154 73.3551 6.10364 73.7011C6.36154 74.3067 6.53347 74.9122 6.79137 75.5177C6.96331 75.9502 7.13524 76.4693 7.30718 76.9883C7.47911 77.5073 7.73701 78.0263 7.90895 78.5454C8.25282 79.3239 8.59668 80.1889 8.94055 81.054C9.80022 81.054 10.6599 81.054 11.5196 81.054C12.1213 81.054 12.6371 81.054 13.2389 81.054C14.4424 81.054 15.646 81.1405 16.9355 81.1405C19.5145 81.1405 22.2655 81.1405 25.1883 81.054C28.1112 80.9674 31.292 80.9675 34.5588 80.8809C37.9115 80.7944 41.5221 80.7079 45.2187 80.6214C51.4943 79.2374 58.1997 77.8533 65.335 76.2963C72.3843 74.7392 79.7775 73.0956 87.4285 71.4521C90.3514 70.76 93.2743 70.1545 96.1112 69.4625L97.5727 69.1165L97.7446 63.6667L97.8306 61.9367V61.0716V60.4661C97.8306 60.2066 97.7446 59.9471 97.7446 59.7741C97.4007 57.698 96.5411 55.7949 95.3375 54.2378C94.134 52.6808 92.7585 51.4697 91.2111 50.4317C89.6637 49.4801 88.0303 48.7016 86.311 48.2691C84.5916 47.8366 82.8723 47.5771 81.2389 47.5771C77.8862 47.4905 74.7914 47.9231 71.9545 48.3556C69.1175 48.8746 66.2806 49.3936 63.5297 49.8261C52.6119 51.8157 42.8976 53.8918 34.9886 56.3139C31.0341 57.525 27.4235 58.736 24.4146 59.9471C21.3198 61.1581 18.8268 62.3692 16.7636 63.4072C15.732 63.9262 14.8723 64.4453 14.0986 64.8778C13.3249 65.3103 12.7231 65.7428 12.2073 66.0888C11.2617 66.8674 10.8318 67.2999 10.9178 67.4729C11.3476 68.2514 20.2022 63.7532 36.1062 59.9471C44.0151 57.9575 53.6435 56.2274 64.4753 54.4973C67.2263 54.0648 69.9772 53.6323 72.8141 53.1998C75.651 52.7673 78.488 52.4213 81.1529 52.5943C82.5284 52.6808 83.9039 52.8538 85.1934 53.1998C86.3969 53.5458 87.6865 54.0648 88.804 54.8434C91.0392 56.2274 92.7585 58.39 93.1024 60.8121C93.1024 61.0716 93.1024 60.8121 93.1024 61.2446V62.1097V63.8397V65.3968C90.9532 65.8293 88.89 66.3483 86.6548 66.8674C79.0038 68.5974 71.6106 70.3275 64.5613 71.8846C57.598 73.5281 51.0645 75.0852 44.8748 76.4693C41.2642 76.6423 37.8255 76.8153 34.5588 76.9883C31.292 77.1613 28.1112 77.3343 25.1883 77.5073C22.2655 77.6803 19.5145 77.8533 16.9355 78.0263C15.646 78.1128 14.4424 78.1128 13.2389 78.1993C12.6371 78.1993 12.1213 78.2858 11.5196 78.2858C11.2617 78.2858 11.0038 78.3723 10.7459 78.3723C10.6599 78.2858 10.5739 78.1128 10.5739 78.0263L10.488 77.8533C10.488 77.7668 10.402 77.7668 10.316 77.5938C10.0581 77.0748 9.80022 76.5558 9.54232 76.1232C9.28442 75.6042 9.02652 75.1717 8.85459 74.7392L8.76862 74.5662L8.85459 74.3932L8.76862 74.2202C8.68265 74.1337 8.59668 73.9607 8.59668 73.8742C8.68265 73.7011 8.68265 73.5281 8.76862 73.4416L8.85459 73.1821C8.94055 73.0956 8.94055 72.9226 9.02652 72.8361C9.19845 72.4036 9.45636 71.9711 9.62829 71.5386C9.97216 70.76 10.316 69.9815 10.488 69.4625C10.9178 68.2514 11.0897 67.5594 10.9178 67.4729Z" fill="#1B1B1B"/>
<path d="M95.5094 132.437C95.7673 132.437 95.9393 132.004 96.1972 131.399C96.4551 130.793 96.713 130.015 97.4007 129.323C97.7446 128.977 98.0885 128.717 98.5183 128.544C98.9481 128.371 99.4639 128.371 99.8938 128.544C100.324 128.717 100.753 128.977 101.183 129.496C101.613 130.015 101.957 130.707 102.215 131.485C102.301 131.831 102.387 132.091 102.473 132.437C102.559 132.783 102.559 133.043 102.645 133.475C102.731 133.908 102.731 134.34 102.731 134.686C102.731 135.032 102.645 135.378 102.731 135.292V135.378C102.559 135.465 102.301 135.465 101.957 135.465C101.613 135.465 101.269 135.465 100.925 135.378C100.582 135.292 100.238 135.292 99.8938 135.205C99.292 135.119 98.7762 134.946 98.3464 134.686C97.4867 134.254 96.9709 133.735 96.627 133.216C96.1112 132.783 95.7673 132.35 95.5094 132.437C95.2515 132.437 95.0796 132.87 95.0796 133.648C95.0796 134.427 95.6814 135.724 96.8849 136.676C97.4867 137.108 98.2604 137.541 99.0341 137.8C99.4639 137.973 99.8078 138.06 100.238 138.146C100.667 138.233 101.097 138.319 101.613 138.406C102.129 138.492 102.645 138.492 103.418 138.319C103.848 138.233 104.192 138.06 104.622 137.8C104.966 137.541 105.224 137.195 105.482 136.849C105.654 136.503 105.825 135.984 105.911 135.638C105.997 135.292 105.997 135.032 105.997 134.686C105.997 134.081 105.997 133.562 105.911 133.043C105.911 132.697 105.826 132.177 105.74 131.745C105.654 131.312 105.568 130.88 105.396 130.447C105.052 129.409 104.45 128.371 103.762 127.42C102.989 126.555 101.871 125.776 100.667 125.603C99.4639 125.43 98.4323 125.603 97.4867 126.122C96.5411 126.555 95.9393 127.333 95.5954 128.025C94.8217 129.409 94.8217 130.62 94.9936 131.399C94.9936 132.091 95.2515 132.437 95.5094 132.437Z" fill="#1B1B1B"/>
<path d="M5.24398 49.9126C5.75978 49.8261 6.10365 49.0476 6.70542 48.7015C6.96332 48.5285 7.13526 48.615 7.30719 48.7015C7.30719 48.788 7.39316 48.788 7.47913 48.9611C7.56509 49.1341 7.73703 49.3936 7.823 49.7396C7.823 49.8261 7.90896 49.9991 7.90896 50.0856C7.90896 50.1721 7.90896 50.1721 7.90896 50.2586V50.4316V50.5181C7.90896 50.5181 7.90896 50.5181 7.90896 50.6046C7.90896 50.6046 7.90896 50.6046 7.823 50.6046C7.30719 50.6046 6.96332 50.5181 6.70542 50.4316C6.44752 50.3451 6.18962 50.2586 6.01769 50.0856C5.67382 49.9991 5.41592 49.8261 5.24398 49.9126C4.98608 49.9126 4.81415 50.0856 4.72818 50.5181C4.64221 50.8641 4.72818 51.5562 5.15801 52.1617C5.58785 52.7672 6.36155 53.2862 7.22122 53.4592C7.30719 53.4592 7.47913 53.5457 7.65106 53.5457C7.82299 53.5457 7.99493 53.6323 8.16686 53.6323C8.51073 53.7188 8.8546 53.7188 9.19847 53.6323C9.88621 53.5457 10.488 53.1997 10.9178 52.6807C11.3476 52.0752 11.4336 51.2101 11.3476 50.2586C11.3476 50.0856 11.3476 49.9126 11.2617 49.8261C11.2617 49.6531 11.1757 49.5666 11.1757 49.4801C11.0897 49.2206 11.0897 48.9611 11.0038 48.7015C10.7459 48.096 10.488 47.4905 9.97217 46.9715C9.45637 46.4525 8.76863 45.9334 7.99493 45.8469C6.44752 45.5874 5.15801 46.539 4.81415 47.404C4.38431 48.269 4.47028 48.9611 4.64221 49.3936C4.72818 49.7396 4.98608 49.9126 5.24398 49.9126Z" fill="#1B1B1B"/>
<path d="M46.0784 31.4008C46.5942 31.3143 46.9381 30.5358 47.5398 30.1897C47.7977 30.0167 47.9697 30.1032 48.1416 30.1897C48.1416 30.2762 48.2276 30.2762 48.3135 30.4492C48.3995 30.6223 48.5714 30.8818 48.6574 31.2278C48.6574 31.3143 48.7434 31.4873 48.7434 31.5738C48.7434 31.6603 48.7434 31.6603 48.7434 31.7468V31.9198C48.7434 31.9198 48.8293 32.0063 48.7434 32.0928C48.7434 32.0928 48.7434 32.0928 48.6574 32.1793C48.6574 32.1793 48.6574 32.1793 48.4855 32.1793H48.3135C48.0556 32.1793 47.8837 32.1793 47.7118 32.0928C47.3679 32.0063 47.11 31.9198 46.8521 31.7468C46.5942 31.4873 46.3363 31.3143 46.0784 31.4008C45.8205 31.4008 45.6486 31.6603 45.5626 32.0928C45.4766 32.6118 45.7345 33.3904 46.4223 33.9959C46.7661 34.2554 47.196 34.5149 47.6258 34.6879C47.7118 34.6879 47.8837 34.7744 47.9697 34.7744C48.0556 34.7744 48.2276 34.8609 48.3995 34.8609C48.7434 34.9474 49.1732 35.0339 49.5171 35.0339C50.2908 35.0339 51.0645 34.7744 51.4943 34.0824C52.0101 33.4769 52.0961 32.5253 52.0101 31.5738C52.0101 31.4008 52.0101 31.2278 51.9242 31.1413C51.9242 30.9683 51.8382 30.8818 51.8382 30.7953C51.7522 30.5358 51.7522 30.2762 51.6663 30.0167C51.4084 29.4112 51.1505 28.8057 50.6346 28.2867C50.1188 27.7676 49.4311 27.2486 48.6574 27.1621C47.11 26.9026 45.8205 27.8541 45.4766 28.7192C45.0468 29.5842 45.1328 30.2762 45.3047 30.7088C45.5626 31.3143 45.8205 31.4008 46.0784 31.4008Z" fill="#1B1B1B"/>
<path d="M48.7434 26.3836C49.0013 26.2971 49.0013 25.6051 48.7434 24.567C48.5715 23.529 48.1416 22.0584 48.3995 20.5014C48.5714 19.8093 48.9153 18.9443 49.4311 18.4253C49.689 18.1658 50.0329 17.9928 50.2908 17.9063C50.6347 17.8197 51.0645 17.8197 51.6663 17.8197C52.0101 17.8197 52.354 17.8197 52.6979 17.8197C53.1277 17.8197 53.5575 17.8197 53.9014 17.7332C54.7611 17.5602 55.5348 17.3007 56.3085 16.9547C57.8559 16.1762 59.2314 14.9651 60.177 13.4081C60.5209 12.716 60.8648 12.1105 61.0367 11.332C61.2946 10.6399 61.3806 9.86141 61.3806 9.08288C61.3806 7.1798 60.7788 5.36323 59.8331 3.97917C58.8875 2.59511 57.598 1.47056 56.1366 0.778534C54.7611 0.0865052 53.1277 -0.173006 51.8382 0.0865053C50.4627 0.259512 49.2592 0.692031 48.3135 1.29756C46.4223 2.50861 45.4766 4.06567 45.0468 5.19022C44.7029 6.31477 44.8749 7.00679 45.0468 7.0933C45.3047 7.1798 45.6486 6.66078 46.2503 5.88225C46.8521 5.10372 47.8837 4.06567 49.3452 3.37364C50.8926 2.68161 52.8698 2.4221 54.6751 3.46015C56.4804 4.41169 58.0278 6.66078 57.9419 8.99638C57.9419 9.4289 57.8559 9.94792 57.7699 10.3804C57.684 10.813 57.4261 11.2455 57.1682 11.678C56.5664 12.716 55.6208 13.5811 54.6751 14.1001C54.1593 14.3596 53.6435 14.5326 53.1277 14.7056C52.6119 14.7921 52.1821 14.8786 51.4084 14.8786C50.7206 14.8786 49.861 14.8786 49.0013 15.2246C48.1416 15.5707 47.5398 16.0897 47.024 16.6952C46.0784 17.9063 45.7345 19.2038 45.6486 20.4149C45.5626 21.6259 45.8205 22.5774 46.1644 23.356C46.4223 24.1345 46.7661 24.74 47.11 25.2591C48.0556 26.1241 48.4855 26.5566 48.7434 26.3836Z" fill="#1B1B1B"/>
<path d="M88.6322 33.6499C87.5146 33.6499 87.0847 35.38 86.9988 37.6291C86.9988 37.7156 86.9988 37.8886 86.9988 37.9751C86.9988 38.0616 86.9988 38.2346 86.9988 38.3211C87.0847 40.5702 87.5146 42.3003 88.6322 42.3003C89.6638 42.3003 90.1796 40.5702 90.2655 38.3211C90.2655 38.2346 90.2655 38.0616 90.2655 37.9751C90.2655 37.8886 90.2655 37.7156 90.2655 37.6291C90.1796 35.38 89.6638 33.6499 88.6322 33.6499Z" fill="#1B1B1B"/>
<path d="M108.147 33.5635C107.287 32.8714 104.88 35.034 102.043 38.0616C101.871 38.2346 101.785 38.4077 101.613 38.4942C101.441 38.6672 101.355 38.8402 101.183 38.9267C98.4324 42.0408 96.5411 44.7224 97.4008 45.5009C98.1745 46.193 100.753 44.2899 103.676 41.1758C103.848 41.0028 103.934 40.8298 104.106 40.7433C104.278 40.5702 104.364 40.3972 104.536 40.3107C107.287 37.1101 108.92 34.2555 108.147 33.5635Z" fill="#1B1B1B"/>
<path d="M123.535 49.6531C123.535 48.5285 119.322 48.096 113.906 48.0095C113.649 48.0095 113.391 48.0095 113.133 48.0095C112.875 48.0095 112.617 48.0095 112.359 48.0095C106.943 48.096 102.731 48.5285 102.731 49.6531C102.731 50.6911 106.857 51.2102 112.359 51.2967C112.617 51.2967 112.875 51.2967 113.133 51.2967C113.391 51.2967 113.649 51.2967 113.906 51.2967C119.322 51.2102 123.535 50.6911 123.535 49.6531Z" fill="#1B1B1B"/>
</g>
<defs>
<clipPath id="clip0_201_2537">
<rect width="136" height="191" fill="white"/>
</clipPath>
</defs>
</svg>
